<?xml version="1.0" encoding="UTF-8"?><svg id="a" xmlns="http://www.w3.org/2000/svg" viewBox="0 0 800 600.7"><path d="M128.77,445.5c-11.97-21.72-20.55-44.34-25.53-68.3-6.86-33.01-8.05-66.41-6.85-100,.83-23.16,2.15-46.25,6.87-69.01,4.57-22.04,13.02-42.57,24.29-62.16,20.58,5.14,40.18,12.35,59.41,20.57,55.18,23.58,106.03,54.43,153.2,91.43,5.1,4,10.01,8.24,15.18,12.14,1.32,.99,3.47,1.89,4.92,1.53,16.72-4.09,33.72-3.58,50.66-2.92,8.73,.34,17.39,2.14,26.12,2.98,1.7,.16,3.9-.64,5.26-1.75,46.38-37.98,96.21-70.5,150.73-95.63,23.65-10.9,47.74-20.6,72.98-27.29,3.4-.9,4.8-.04,6.39,2.84,15.54,28.24,24.34,58.46,27.31,90.51,3.19,34.4,3.92,68.81,.66,103.21-3.39,35.78-12.66,69.9-30.78,102.13-13.28-4.1-26.81-8.06-40.2-12.46-58.84-19.33-115.72-43.16-169.53-74.03-1.07-.61-2.18-1.16-3.18-1.87-7.99-5.65-15.7-10.21-25.89-3.58-3.76,2.44-9.54,2.4-14.4,2.41-14.65,.01-29.32-.17-43.94-1.02-4.72-.27-9.25-3.02-13.96-4.29-1.84-.5-4.39-.82-5.84,.05-42.09,25.24-86.4,45.87-132.06,63.68-29.94,11.68-60.21,22.38-91.81,30.83Zm327.55-118.89c33.88,13.7,67.5,27.47,101.26,40.88,18.17,7.22,36.41,14.47,56.01,17,4.1,.53,8.43,.88,12.43,.14,11.63-2.16,17.02-16.04,10.07-25.77-7.64-10.7-19.04-15.83-31.34-17.99-20.16-3.54-40.48-6.31-60.83-8.63-27.89-3.17-55.87-5.54-83.79-8.45-3.14-.33-3.82,.75-3.81,2.82Zm-116.11-3.05c-8.7,.88-16.98,1.74-25.26,2.55-24.41,2.41-48.87,4.41-73.22,7.33-17.56,2.1-35.09,4.9-52.43,8.38-10.2,2.05-19.42,7.05-26.24,15.42-8.4,10.32-3.98,24.62,8.73,27.28,4.26,.89,9.12,.92,13.3-.19,14.85-3.95,29.87-7.68,44.21-13.1,36.62-13.82,72.9-28.53,109.36-42.77,3.06-1.2,2.68-2.71,1.54-4.91Zm-69.87-30.96c-.59-.26-1.26-.63-1.98-.86-31.2-10.02-63.23-13.21-95.81-11.13-7.8,.5-15.79,1.96-21.49,8.2-1.44,1.58-2.76,4.72-2.12,6.36,.66,1.69,3.75,3.35,5.81,3.4,4.57,.12,9.24-.41,13.73-1.32,19.98-4.06,40.06-7.3,60.52-6.75,13.84,.38,27.67,1.38,41.33,2.09Zm256.74-1.14c.05,.54,.1,1.09,.15,1.63,8.44-.72,16.88-1.61,25.33-2.12,19.94-1.21,39.81-.81,59.54,2.77,9.85,1.79,19.72,3.49,29.62,4.97,3.28,.49,7.41-.05,7.86-3.82,.28-2.34-2.42-5.1-3.96-7.57-.45-.72-1.42-1.3-2.27-1.53-6.76-1.87-13.46-4.65-20.35-5.25-19.46-1.71-38.93-.38-58.17,2.79-12.69,2.09-25.18,5.38-37.76,8.14Zm10.69-54.04c32.36-16.96,67.64-28.18,97.97-49.16-37.27,7.21-67.32,28.79-97.97,49.16Zm-375.57-48.29c30.1,20.67,64.82,32.05,97.19,48.15-30.71-19.43-60.42-40.84-97.19-48.15Zm293.24,103.6c17.77-12.51,35.47-24.96,53.17-37.41l-.35-.51c-19.98,8.51-39.95,17.03-59.95,25.55,2.46,4.27,4.67,8.11,7.13,12.37Zm-106.49-12.43c-19.46-8.18-38.65-16.24-57.83-24.31l-.55,.95c17.11,11.88,34.22,23.76,51.51,35.76,2.4-4.34,4.61-8.32,6.87-12.41Zm9.35,65.47c-7.85-38.28-7.86-39.13-.76-68.21-18.82,15.97-17.11,55.36,.76,68.21Zm81.59-68.41c8.16,23.52,7.13,46.13-1.29,68.92,19.15-14.34,19.96-52.64,1.29-68.92Z"/></svg>