<?xml version="1.0" encoding="UTF-8" standalone="no"?>
<svg
   id="a"
   viewBox="0 0 800 600.7"
   version="1.1"
   sodipodi:docname="Free-Bow-Tie-SVG-filled.svg"
   inkscape:version="1.2.1 (9c6d41e, 2022-07-14)"
   xmlns:inkscape="http://www.inkscape.org/namespaces/inkscape"
   xmlns:sodipodi="http://sodipodi.sourceforge.net/DTD/sodipodi-0.dtd"
   xmlns="http://www.w3.org/2000/svg"
   xmlns:svg="http://www.w3.org/2000/svg">
  <defs
     id="defs27" />
  <sodipodi:namedview
     id="namedview25"
     pagecolor="#ffffff"
     bordercolor="#000000"
     borderopacity="0.25"
     inkscape:showpageshadow="2"
     inkscape:pageopacity="0.0"
     inkscape:pagecheckerboard="0"
     inkscape:deskcolor="#d1d1d1"
     showgrid="false"
     inkscape:zoom="0.74536261"
     inkscape:cx="342.11536"
     inkscape:cy="392.42645"
     inkscape:window-width="1559"
     inkscape:window-height="901"
     inkscape:window-x="102"
     inkscape:window-y="94"
     inkscape:window-maximized="0"
     inkscape:current-layer="a" />
  <path
     d="M329.95,208.43c.88-6.43,4.23-8.35,9.91-6.01,7.02,2.89,13.77,6.75,21.05,8.61,8.57,2.19,17.54,3.38,26.39,3.78,17.2,.78,34.44,.68,51.66,.98,3.4,.06,6.84,.17,9.12,4.03,7.55-4.08,15-8.09,22.45-12.12,1.15-.62,2.25-1.34,3.43-1.9,5.09-2.42,7.38-1.27,8.51,4.3,4.88-4.27,9.61-8.69,14.63-12.74,26.55-21.4,55.4-39.24,85.47-55.21,25.14-13.35,51.06-24.77,78.64-32.09,17.81-4.73,35.84-8.4,54.39-8.13,13.42,.2,11.69,.19,14.16,11.02,4.18,18.32,7.33,36.88,10.65,55.38,2.94,16.38,5.74,32.78,8.2,49.24,4.51,30.12,6.71,60.38,5.12,90.88-1.29,24.62-3.84,49.05-9.43,73.07-7.56,32.54-20.61,62.91-37.21,91.82-1.77,3.08-4.45,3.96-7.67,3.98-12.06,.05-23.47-2.97-34.53-7.51-17.6-7.22-33.69-17.2-49.77-27.22-28.09-17.49-56.46-34.55-84.28-52.46-18.57-11.95-36.42-25.04-54.56-37.67-1.77-1.24-3.3-2.82-5.19-4.46-.5,.99-.98,1.9-1.43,2.81-2.58,5.2-6.07,6.57-11.16,3.75-4.17-2.31-8.01-5.22-11.98-7.89-.9-.6-1.74-1.28-2.61-1.93l.07,1.04c-2.25,.44-4.56,1.44-6.75,1.22-11.66-1.14-23.29-1.16-34.92,.16-5.08,.58-10.12,1.49-15.2,2.05-3.14,.35-6.33,.48-8.67-2.45-.37-.46-1.55-.48-2.32-.39-8.07,.93-15.67,3.46-23.03,6.82-9.09,4.15-9.74,3.98-16.03-4.22-5.14,4.11-10.46,8-15.39,12.35-19.93,17.61-39.59,35.52-59.63,53-28.96,25.27-59.38,48.51-94.23,65.35-13.18,6.37-26.71,11.69-41.31,13.69-9.65,1.32-19.19,.74-28.91-.42-6.79-.81-9.59-4.7-12.51-9.35-8.73-13.89-13.53-29.38-17.66-45.07-5.3-20.13-8.46-40.63-10.73-61.31-4.11-37.57-4.15-75.29-4.57-113-.21-18.74-.26-37.53,.87-56.23,1.85-30.54,5.71-60.85,16.18-89.89,1.36-3.76,3.31-7.31,4.93-10.98,.37-.85,.93-1.9,.71-2.66-.71-2.51,.6-3.99,2.55-4.51,4.28-1.13,8.64-2.44,13.01-2.6,17.83-.68,34.6,4.33,51.13,10.35,48.66,17.73,95.58,39.13,139.83,66.16,16.46,10.06,32.41,20.9,47.03,33.56,.38,.33,.87,.55,1.59,1ZM100.35,478.88c-1.3-4.36,.51-7.38,2.73-10.24,4.41-5.67,10.71-8.35,17.14-10.88,11.83-4.66,23.83-8.95,35.36-14.26,33.02-15.23,63.34-35.09,93.43-55.33,21.87-14.71,44.02-28.97,68.11-39.88,5.61-2.54,11.32-4.85,16.49-7.05-1.86-9.42-3.69-18.66-5.59-28.26-54.82,4.16-106.92,19.39-157.16,41.77,24.45-12.82,50.05-22.69,76.41-30.63,26.4-7.96,53.32-13.32,80.83-15.76-.29-4.61-.56-8.94-.88-14.05-53.36-3.93-104.06,8.04-154.26,23.53,34.7-17.88,71.94-26.9,111.22-31.43-1.34-.45-2-.71-2.69-.9-17.27-4.84-34.53-9.73-51.81-14.5-19.19-5.3-38.35-10.84-58.22-12.95-12.79-1.36-25.67-1.91-38.51-2.82,1.31,.14,2.69-.16,4.08-.22,29.65-1.2,58.97,1.9,88.03,7.44,26.05,4.97,51.99,10.5,78.01,15.63,7.76,1.53,15.62,2.54,23.79,3.84,0-1.76,0-3.16,0-4.55,.06-8.28-.09-16.58,.31-24.85,.14-2.96-.84-4.52-3.06-6.12-14.81-10.65-30.8-19.27-47.06-27.41-7.89-3.95-15.93-7.63-23.9-11.43,26,9.33,51.1,20.52,74.38,36,.47-7.49,.8-14.67,1.41-21.81,.27-3.09-.64-4.94-3.16-7.01-19.94-16.33-41.15-30.79-63.46-43.67-37.8-21.83-76.45-41.85-118.01-55.79-18.46-6.19-37.13-10.87-56.75-10.74q-6.47,.04-8.61,6.1c-10.13,28.92-15.36,58.91-18.11,89.27-1.92,21.25-2.7,42.63-3.38,63.97-1.07,33.17,1.25,66.2,5.05,99.15,2.6,22.49,5.75,44.87,11.25,66.86,4.6,18.41,10.23,36.44,19.84,52.95,.77,1.33,2.69,2.7,4.16,2.81,19.77,1.54,38.76-1.67,57.09-9.39,32.07-13.5,61.41-31.55,88.11-53.66,22.31-18.48,43.76-38.01,65.57-57.1,1.2-1.05,2.22-2.31,3.33-3.47-8.74,4.23-17.28,8.59-25.37,13.68-24.59,15.47-48.88,31.43-73.51,46.83-29.87,18.67-60.99,34.89-94.6,45.9-5.74,1.88-11.09,4.48-15.51,8.74-.65,.62-1.52,1.01-2.55,1.67Zm373.77-138.54c3.2,2.42,6.67,5.23,10.32,7.79,19.77,13.87,40.96,25.27,63,35,31.72,14.01,63.72,27.4,95.52,41.25,14.77,6.43,29.3,13.39,42.54,22.74,4.88,3.45,8.99,7.61,11.56,13.08,.64,1.36,.84,2.92,1.41,5-1.33-.51-1.87-.62-2.3-.9-1.01-.64-2.03-1.29-2.94-2.06-11.17-9.61-23.81-16.95-37.26-22.69-30.39-12.97-60.97-25.52-91.48-38.23-.35-.15-.76-.15-1.14-.21,.56,.82,1.27,1.28,1.99,1.71,13.17,7.87,26.34,15.75,39.51,23.62,16.81,10.05,33.48,20.35,50.49,30.06,13.23,7.55,27.52,12.45,42.76,14.21,1.94,.23,3.78,.96,5.15-1.76,13.89-27.6,24.77-56.29,31.34-86.52,5.61-25.79,8.74-51.92,9.93-78.28,1.41-31.35-.62-62.53-5.22-93.53-3.77-25.4-8.01-50.73-12.01-76.1-1.37-8.68-2.64-17.37-4.01-26.36-1.91,.11-3.53,.08-5.11,.31-13.13,1.91-26.32,3.47-39.36,5.88-25.2,4.66-49.83,11.66-72.61,23.5-22.75,11.83-45.04,24.6-67.1,37.7-18.33,10.88-36.04,22.81-53.96,34.37-1.22,.79-2.66,2.28-2.77,3.55-.53,6.18-.67,12.39-.87,18.59-.1,2.96-.02,5.93-.02,9.2,21.15-16.1,43.31-29.84,67.32-40.47-.67,.74-1.47,1.27-2.3,1.74-21.87,12.51-42.78,26.44-62.58,42.04-2.07,1.63-3.12,3.33-3.11,6.01,.02,4.35-.39,8.71-.48,13.07-.09,4.86-.02,9.72-.02,14.88,1.53-.38,2.8-.64,4.03-1.01,21.36-6.35,42.64-13.01,64.1-18.99,29.58-8.24,59.42-15.56,90.19-17.52,12.74-.81,25.57-.13,38.36-.13l.02,.86c-27.14,.06-53.82,3.49-80.02,10.6-27.35,7.43-74.19,22.57-76.58,24.9,45.27,2.88,88.98,11.9,129.4,33.6-.89,.13-1.69-.07-2.47-.33-6.06-2.07-12.05-4.38-18.19-6.21-22.93-6.84-46.2-12.26-69.93-15.37-13.81-1.81-27.68-3.23-41.57-4.28-12.73-.96-25.41,.14-38.07,2.55-.28,5.53-.55,10.91-.83,16.46,42.35-.27,81.89,10.16,120.01,26.86-39.06-12.85-78.73-22.24-120.02-21.96-1.56,10.79-3.06,21.09-4.61,31.78Zm-35.48-.86c.3-1.7,.69-3.07,.75-4.46,.49-11.1,.96-22.2,1.36-33.3,.4-10.89,.62-21.79,1.11-32.67,.63-13.82,1.5-27.63,2.18-41.45,.2-4.13,.06-4.25-4.1-4.07-19.83,.82-39.66,1.09-59.45-.81-3.94-.38-4.84,.29-5.15,4.37-.91,12.05-2.43,24.12-2.32,36.18,.16,16.97,1.16,33.96,2.63,50.87,.76,8.7,3.31,17.24,5.03,25.85,.46,2.3,1.65,2.9,3.95,2.3,17.69-4.6,35.56-6.05,54-2.8Zm-102.4-131.45c-.28,2.26-.6,3.87-.66,5.5-.68,18.4-1.65,36.79-1.89,55.2-.27,21.03,.49,42.04,4.51,62.78,1.2,6.18,2.93,12.21,6.71,17.47,9.34-5.77,19.24-9.47,30-10.7-7.5-38.56-8.48-77.27-3.18-116.34-12.64-1.66-24.64-5.49-35.5-13.89Zm126.34,139.93l1.32-.33c1.89-9.67,4.57-19.26,5.5-29.01,1.89-19.93,2.86-39.95,4.18-59.94,.64-9.67,1.24-19.35,1.81-29.03,.36-6.01,.63-12.02,.96-18.42-9.49,5.48-17.88,11.59-28.52,14.1,0,3.06,.09,6.11-.01,9.14-.79,22.97-1.7,45.93-2.41,68.9-.27,8.71,.3,17.47-.36,26.14-.37,4.9,.28,7.92,5.1,10.19,4.45,2.1,8.32,5.45,12.45,8.25Z"
     id="path2" />
  <path
     d="M177.37,424.16c-8.25,3.22-15.98,6.34-23.78,9.26-13.67,5.12-27.7,8.89-42.17,11.03-3.14,.46-5.22-.19-7.25-2.82-10.44-13.53-16.32-29.16-21.12-45.27-6.14-20.59-9.79-41.69-11.92-63.03-1.49-14.94-2.59-29.92-3.84-44.89-.1-1.17-.01-2.35,.19-3.52,1.22,11.02,2.18,22.08,3.71,33.05,4.73,33.95,10.01,67.81,24.27,99.41,3.16,7,7.58,13.42,11.29,20.18,1.34,2.44,3.14,2.77,5.67,2.41,20.1-2.82,39.5-8.39,58.75-14.61,1.65-.53,3.3-1.05,4.96-1.54,.17-.05,.4,.1,1.24,.35Z"
     id="path4" />
  <path
     d="M68.29,251.53c.37-11.41,.41-22.84,1.2-34.22,.84-12.04,2.02-24.08,3.71-36.02,2.91-20.52,6.27-40.98,12.47-60.83,1.69-5.4,2.13-5.7,7.91-5.47,19.1,.77,37.32,5.59,55.15,12.12,6.72,2.46,13.42,4.97,19.89,8.15-2.38-.78-4.75-1.57-7.13-2.35-14.96-4.89-29.88-10.02-45.53-12.33-7.63-1.13-15.37-1.52-23.05-2.37-2.13-.24-2.94,.82-3.4,2.55-2.61,9.87-5.79,19.62-7.71,29.62-3.48,18.13-6.68,36.35-9.11,54.65-1.88,14.12-2.42,28.41-3.55,42.63-.1,1.3-.13,2.6-.2,3.9l-.67-.02Z"
     id="path6" />
  <path
     d="M723.63,347.56c12.28-75.83,1.39-149.39-20.8-222.09-9.44-.44-18.57,.84-27.59,2.85-25.33,5.66-49.63,14.38-73.37,24.76-.68,.3-1.36,.57-2.23,.54,.72-.44,1.41-.94,2.16-1.31,26.66-13.04,54.27-23.42,83.48-29.08,5.84-1.13,11.88-1.34,17.85-1.54,1.03-.03,2.68,2.01,3.11,3.38,2.83,9.13,5.9,18.22,7.97,27.53,4.84,21.74,9.83,43.48,13.52,65.42,4.44,26.36,6.15,53.03,4.17,79.78-1.24,16.81-3.55,33.49-8.27,49.75Z"
     id="path8" />
  <path
     d="M693.52,435.12c10.34-15.3,15.46-32.22,22.26-48.47-2.43,7.88-4.49,15.91-7.4,23.61-3.18,8.4-6.97,16.6-10.89,24.7-2,4.14-3.53,4.4-7.59,2.05-9.33-5.38-18.26-11.5-27.87-16.3-18.36-9.16-37.08-17.61-55.65-26.35-1.17-.55-2.37-1.03-3.43-1.82,31.53,11.07,61.9,24.66,90.59,42.58Z"
     id="path10" />
  <path
     d="M399.67,329.64c8.65-3.15,17.31-2.83,26.04,0h-26.04Z"
     id="path12" />
  <path
     d="M425.67,233.08c-5.86,2.91-18.27,3.77-24.37,1.99,7.73-.63,16-1.31,24.37-1.99Z"
     id="path14" />
  <path
     d="M347.19,322.53c-2.91-15.24-5.22-30.46-3.08-45.3,1,14.7,2.04,30,3.08,45.3Z"
     id="path16" />
  <path
     d="M346.03,229.96c-.49,11.82-.98,23.63-1.47,35.45l-1-.04c.42-11.81,.84-23.61,1.26-35.42h1.21Z"
     id="path18" />
  <path
     d="M351.52,226.8c3.26,.9,6.53,1.79,9.79,2.69l-.21,.8c-3.27-.87-6.54-1.75-9.81-2.62l.23-.87Z"
     id="path20" />
  <path
     d="M463.5,309.24c-.68,4.6-1.37,9.2-2.05,13.8-.42-.07-.85-.13-1.27-.2,.79-4.58,1.59-9.16,2.38-13.74l.94,.13Z"
     id="path22" />
  <path
     style="fill:#ffffff;stroke:#cdcdcd;stroke-width:0.507072;stroke-linecap:round;stroke-linejoin:round"
     d="M 94.945718,482.65099 C 86.448874,473.00167 74.466813,435.71019 68.542293,400.47622 58.28255,339.46009 55.815152,282.64045 60.473232,214.66062 63.762652,166.65497 75.705,110.66052 83.549488,106.46228 c 4.407189,-2.35865 24.026362,-0.38457 41.849342,4.21089 43.54136,11.22667 111.66548,43.87413 163.72219,78.46141 19.33662,12.84754 36.58791,25.95207 38.31259,29.10324 0.53864,0.98412 0.59091,6.70259 0.11619,12.70771 l -0.86317,10.91839 -10.06221,-6.02823 c -17.32093,-10.37689 -60.81451,-29.90165 -62.60989,-28.10628 -0.36969,0.36969 7.98176,4.91406 18.55879,10.0986 19.58722,9.60106 41.2221,21.88283 49.0822,27.86319 l 4.3603,3.31751 v 16.04713 16.04713 l -5.70193,-0.83399 c -3.13605,-0.45867 -28.34191,-5.30614 -56.013,-10.77211 -62.87404,-12.41977 -73.54332,-13.89054 -105.98868,-14.61067 -29.55254,-0.65593 -28.26758,0.90765 2.68326,3.26505 10.69949,0.81493 24.88721,2.68209 31.52827,4.14922 13.74982,3.03758 86.75697,23.02098 86.18698,23.59096 -0.20587,0.20588 -6.40004,1.33647 -13.76482,2.51244 -17.44505,2.78553 -39.9944,8.1836 -54.29789,12.99832 -15.9083,5.35491 -37.57788,14.726 -37.57788,16.25069 0,0.69908 1.05653,0.86237 2.34785,0.36287 5.70161,-2.20546 39.94505,-11.43991 54.00056,-14.56233 25.78996,-5.72924 42.40573,-7.7783 69.56846,-8.57914 28.79054,-0.84884 28.31269,-0.98087 28.34991,7.83279 l 0.0205,4.86544 -13.08088,1.62135 c -30.20538,3.74385 -61.9354,11.61393 -94.94638,23.54976 -17.60158,6.36421 -49.46491,20.70121 -48.39201,21.77411 0.32005,0.32005 10.43947,-3.34 22.48759,-8.13345 37.49645,-14.91826 70.64771,-24.13511 104.1622,-28.95961 21.23353,-3.05661 29.7695,-4.0612 29.7695,-3.50353 0,0.21751 1.2133,6.29217 2.69621,13.49927 1.48292,7.2071 2.53945,13.23898 2.34785,13.40417 -0.19159,0.16521 -5.59494,2.54149 -12.00743,5.28064 -18.08267,7.72415 -37.44941,19.01351 -78.23007,45.60229 -55.74975,36.34856 -70.41706,44.45107 -108.34364,59.85119 -24.43464,9.92171 -29.50544,12.83842 -32.54763,18.72137 -1.922779,3.71823 -2.711814,9.35225 -1.309771,9.35225 0.375341,0 3.091521,-1.74513 6.035961,-3.87807 2.94444,-2.13295 12.448,-6.44858 21.11904,-9.5903 19.02198,-6.89213 48.15018,-20.59776 67.64836,-31.83044 7.87448,-4.53641 32.82551,-20.05916 55.44673,-34.49501 40.28343,-25.70707 51.36378,-32.29824 52.45757,-31.20445 0.57659,0.57658 -40.60836,36.91738 -59.8358,52.79794 -24.12847,19.92849 -46.79397,34.43104 -73.93146,47.30518 -26.08598,12.37531 -40.65017,16.26167 -60.94071,16.26167 -8.74609,0 -11.365548,-0.47247 -13.016942,-2.34785 z m 35.329252,-41.39886 c 14.29565,-3.58447 45.08667,-14.58965 47.49086,-16.97396 1.86704,-1.85163 -2.28563,-0.92981 -22.04314,4.89312 -18.83984,5.55248 -43.52736,10.82163 -46.0918,9.83757 -2.95962,-1.13571 -15.340442,-25.23706 -20.138748,-39.20345 -8.391014,-24.42367 -14.378539,-54.25463 -19.136956,-95.34388 -3.727382,-32.18619 -4.58239,-22.31792 -1.228181,14.17533 2.69452,29.31593 5.225811,45.84909 10.034887,65.54301 6.292381,25.76828 15.773687,48.0187 24.523718,57.55144 3.67306,4.00163 9.10968,3.90366 26.58936,-0.47918 z M 70.310967,239.14535 c 1.632336,-22.70084 3.608706,-39.01694 7.597413,-62.72115 3.921667,-23.30581 11.219029,-54.7245 13.172971,-56.71605 1.46413,-1.4923 25.722029,1.34679 38.698709,4.52923 6.07525,1.4899 17.19854,4.78092 24.71841,7.31336 13.60702,4.58238 18.25188,5.23549 10.98197,1.54416 -6.62013,-3.36139 -30.19524,-11.47065 -42.05058,-14.46435 -7.12405,-1.79897 -16.13161,-2.94927 -24.001348,-3.06508 l -12.597499,-0.18539 -2.460368,7.1796 c -2.984522,8.70913 -8.361793,34.68543 -11.150321,53.86452 -3.686106,25.3525 -6.833347,75.13121 -4.750144,75.13121 0.521633,0 1.349987,-5.58453 1.840787,-12.41006 z"
     id="path394" />
  <path
     style="fill:#ffffff;stroke:#cdcdcd;stroke-width:0.507072;stroke-linecap:round;stroke-linejoin:round"
     d="m 342.75562,343.20309 c -6.13805,-12.93497 -9.30385,-47.96195 -8.10139,-89.63523 0.46842,-16.23371 1.19139,-32.60939 1.60662,-36.39041 l 0.75495,-6.87457 8.58145,4.47295 c 4.71979,2.46013 12.28097,5.23708 16.80263,6.17102 l 8.22118,1.69805 -0.84725,8.75334 c -3.05961,31.61039 -2.09205,69.14913 2.45607,95.28839 0.96293,5.53422 1.61541,10.22239 1.44995,10.41815 -0.16546,0.19576 -3.78516,1.26348 -8.04379,2.37271 -4.25862,1.10923 -10.66722,3.41629 -14.24133,5.1268 l -6.49839,3.11001 z m 3.4365,-45.15684 c -0.8524,-11.14399 -1.74379,-20.45576 -1.98085,-20.69282 -1.14731,-1.14731 -2.17911,12.76848 -1.44837,19.5341 1.46949,13.60533 3.85639,26.51402 4.42532,23.93277 0.30455,-1.38174 -0.14369,-11.63007 -0.9961,-22.77405 z m -0.2106,-54.28438 c 0.10265,-9.81183 -0.31529,-14.87954 -1.1829,-14.34333 -0.80171,0.49549 -1.27775,8.22111 -1.18289,19.19739 0.18912,21.8844 2.12766,17.90695 2.36579,-4.85406 z m 16.25828,-13.60946 c 0,-0.70321 -2.264,-1.90731 -5.03111,-2.67577 -6.09514,-1.6927 -7.04355,-1.73406 -7.04355,-0.30716 0,0.60776 2.264,1.73893 5.03111,2.51372 6.83559,1.91396 7.04355,1.92781 7.04355,0.46921 z"
     id="path396" />
  <path
     style="fill:#ffffff;stroke:#cdcdcd;stroke-width:0.507072;stroke-linecap:round;stroke-linejoin:round"
     d="m 381.93234,340.43833 c -1.68755,-2.87686 -5.05721,-21.97547 -6.24509,-35.39602 -1.46069,-16.50277 -1.58167,-58.18472 -0.20976,-72.2697 l 0.84941,-8.72059 32.86991,0.49133 c 18.07845,0.27023 33.12305,0.72462 33.43245,1.00975 0.50175,0.46241 -1.18017,47.12319 -3.43024,95.16349 l -0.82005,17.50847 -15.5973,-0.55149 c -10.79561,-0.38172 -19.14021,0.11385 -27.1057,1.60974 -13.31258,2.50006 -12.97145,2.47139 -13.74363,1.15502 z m 43.91354,-11.05556 c -1.99298,-1.99298 -12.94088,-3.1545 -19.89853,-2.11114 -10.71373,1.60662 -6.69391,3.43989 7.54267,3.43989 9.03466,0 13.23311,-0.4515 12.35586,-1.32875 z m -0.96095,-95.11852 c 2.08497,-1.2129 1.86112,-1.41442 -1.60102,-1.4413 -9.24664,-0.0718 -22.02143,1.73431 -21.23758,3.00261 1.02794,1.66324 19.46186,0.40304 22.8386,-1.56131 z"
     id="path398" />
  <path
     style="fill:#ffffff;stroke:#cdcdcd;stroke-width:0.507072;stroke-linecap:round;stroke-linejoin:round"
     d="m 454.47786,341.58749 c -4.24232,-2.66125 -8.07457,-5.95264 -8.51613,-7.3142 -0.44155,-1.36155 -0.0203,-26.11461 0.93621,-55.00678 l 1.73904,-52.53123 12.76139,-6.31396 c 7.01876,-3.47268 13.05742,-6.01793 13.41924,-5.65611 0.71611,0.71611 -3.31193,71.68933 -5.36215,94.48025 -1.32665,14.74745 -4.87735,34.97385 -6.38413,36.36691 -0.4841,0.44756 -4.35116,-1.36363 -8.59347,-4.02488 z m 8.93446,-26.64011 c 0.49586,-3.95231 0.35164,-7.04355 -0.32861,-7.04355 -1.24326,0 -2.8639,7.48524 -2.89024,13.34921 -0.0255,5.67738 2.28276,1.15555 3.21885,-6.30566 z"
     id="path400" />
  <path
     style="fill:#ffffff;stroke:#cdcdcd;stroke-width:0.507072;stroke-linecap:round;stroke-linejoin:round"
     d="m 685.46488,467.57296 c -5.59333,-1.39193 -13.74373,-4.10802 -18.11199,-6.03573 -9.21869,-4.06824 -89.4761,-51.75155 -88.59231,-52.63535 0.58595,-0.58595 62.85368,25.07174 81.80434,33.70783 8.68845,3.95946 18.54814,10.05221 32.93526,20.35219 2.51556,1.80094 4.83973,3.00844 5.16482,2.68335 1.75919,-1.75918 -3.34299,-10.79759 -8.9306,-15.8204 -10.30206,-9.26071 -28.1485,-18.18211 -89.27943,-44.63062 -31.6877,-13.70979 -63.25145,-27.6875 -70.14166,-31.06159 -15.18992,-7.43837 -38.15148,-21.11148 -48.22422,-28.71648 -6.78036,-5.11923 -7.3385,-5.9404 -6.66799,-9.81035 0.40247,-2.32291 1.44608,-9.29262 2.31914,-15.48825 l 1.58737,-11.26477 15.58109,0.85256 c 26.44804,1.44718 61.17853,8.19071 91.47612,17.76172 10.42819,3.29426 16.55598,3.62552 8.47825,0.45833 -16.69613,-6.5464 -23.10598,-8.83368 -35.78046,-12.76784 -19.30761,-5.9931 -38.37735,-9.54703 -60.8608,-11.34235 -10.21398,-0.81559 -18.61174,-1.58771 -18.66169,-1.71581 -0.0499,-0.12812 0.15394,-3.38586 0.45309,-7.23948 0.53091,-6.83903 0.66119,-7.03153 5.44803,-8.04977 8.44884,-1.79722 44.36176,-0.96459 63.22956,1.46596 32.39923,4.17366 69.05305,12.3771 91.5315,20.48551 5.14962,1.85758 9.67341,3.06698 10.05283,2.68756 0.98993,-0.98994 -16.91301,-9.7956 -30.89071,-15.19379 -16.25497,-6.27768 -43.85877,-13.13889 -63.27925,-15.72872 -8.85475,-1.18082 -19.72194,-2.63076 -24.14932,-3.22208 l -8.04977,-1.07514 24.82013,-8.23137 c 50.18364,-16.64294 74.65681,-22.23389 108.60028,-24.80998 18.03069,-1.36841 20.04631,-1.73938 14.82958,-2.72936 -3.32053,-0.63013 -14.70439,-0.76665 -25.29745,-0.30338 -37.63587,1.64596 -64.01183,7.18189 -134.73472,28.27885 -16.07284,4.7946 -29.65683,8.45128 -30.18665,8.12595 -0.52981,-0.32533 -0.77309,-7.01209 -0.54061,-14.85945 l 0.4227,-14.26796 7.62708,-6.06293 c 7.80192,-6.20192 41.79717,-29.08088 53.23708,-35.8288 12.40355,-7.31634 4.63951,-5.10896 -11.64359,3.31037 -13.63074,7.0479 -30.86464,17.76835 -46.96043,29.21203 -2.70195,1.92101 -2.71614,1.8284 -1.74771,-11.40384 0.53699,-7.33732 1.22613,-13.76858 1.53141,-14.29167 1.57784,-2.70364 52.08834,-34.28862 83.89154,-52.45866 47.28301,-27.01407 68.34074,-35.84689 102.41119,-42.95713 17.21728,-3.59312 51.21386,-8.50541 52.10823,-7.52931 0.82458,0.89993 16.6479,102.75136 19.16324,123.3498 3.08374,25.25309 3.08156,77.34332 -0.004,103.30542 -5.10548,42.95358 -15.71685,82.3375 -31.44879,116.72172 -8.83012,19.29935 -8.09978,18.85933 -24.51941,14.77321 z m 16.3955,-39.92875 c 4.42533,-9.56351 14.56944,-37.7127 14.56944,-40.42923 0,-2.54063 -3.29429,4.01146 -8.6912,17.28613 -7.73821,19.03348 -13.76254,29.87653 -15.89973,28.6176 -0.86395,-0.50892 -3.8176,-2.32291 -6.56366,-4.0311 -9.75257,-6.06656 -42.75955,-22.01072 -59.01618,-28.508 -15.68736,-6.26978 -25.33289,-9.41531 -23.86768,-7.78357 0.36894,0.41087 15.1604,7.62501 32.8699,16.0314 17.70951,8.4064 37.63269,18.69882 44.27376,22.87205 6.64106,4.17325 13.15883,7.60937 14.48393,7.63584 1.73781,0.0347 3.92323,-3.22364 7.84142,-11.69112 z m 23.85688,-84.52262 c 2.76766,-10.38287 5.3692,-28.63852 6.78687,-47.62517 1.58866,-21.27684 0.37143,-47.47927 -3.35966,-72.32049 -4.25813,-28.35011 -17.19491,-85.23016 -22.3048,-98.06904 -1.35345,-3.40062 -2.04699,-3.68948 -8.85848,-3.68948 -16.0192,0 -53.54265,10.81869 -83.51516,24.07891 -12.50841,5.53389 -16.88998,8.12019 -13.75679,8.12019 0.84577,0 8.96598,-2.96132 18.0449,-6.5807 28.98772,-11.55616 58.69119,-19.69418 74.80021,-20.4934 l 8.65282,-0.4293 4.44228,15.42874 c 16.26418,56.48806 23.70359,115.92178 20.5829,164.43746 -0.81053,12.60086 -2.05984,26.4901 -2.77626,30.86498 -0.71642,4.37488 -1.30608,8.709 -1.31036,9.63137 -0.0152,3.26024 1.24734,1.61362 2.57153,-3.35407 z"
     id="path402" />
</svg>
